<svg width="158" height="76" viewBox="0 0 158 76" fill="none" xmlns="http://www.w3.org/2000/svg">
<rect width="158" height="76" fill="#FEF9F5" fill-opacity="0.96"/>
<path d="M157 38C157 58.4345 123.223 75 81.5574 75C39.8916 75 6.11475 58.4345 6.11475 38C6.11475 17.5655 39.8916 1 81.5574 1C123.223 1 157 17.5655 157 38Z" fill="#060606"/>
<path d="M157 38C157 58.4345 123.223 75 81.5574 75C39.8916 75 6.11475 58.4345 6.11475 38C6.11475 17.5655 39.8916 1 81.5574 1C123.223 1 157 17.5655 157 38Z" fill="black" fill-opacity="0.2"/>
<path d="M157 38C157 58.4345 123.223 75 81.5574 75C39.8916 75 6.11475 58.4345 6.11475 38C6.11475 17.5655 39.8916 1 81.5574 1C123.223 1 157 17.5655 157 38Z" fill="#060606"/>
<path d="M157 38C157 58.4345 123.223 75 81.5574 75C39.8916 75 6.11475 58.4345 6.11475 38C6.11475 17.5655 39.8916 1 81.5574 1C123.223 1 157 17.5655 157 38Z" fill="black" fill-opacity="0.2"/>
<path d="M157 38C157 58.4345 123.223 75 81.5574 75C39.8916 75 6.11475 58.4345 6.11475 38C6.11475 17.5655 39.8916 1 81.5574 1C123.223 1 157 17.5655 157 38Z" fill="#060606"/>
<path d="M157 38C157 58.4345 123.223 75 81.5574 75C39.8916 75 6.11475 58.4345 6.11475 38C6.11475 17.5655 39.8916 1 81.5574 1C123.223 1 157 17.5655 157 38Z" fill="black" fill-opacity="0.2"/>
<path d="M149.328 38.1254C149.328 56.4126 119.1 71.2373 81.8131 71.2373C44.5257 71.2373 14.2984 56.4126 14.2984 38.1254C14.2984 19.8382 44.5257 5.01356 81.8131 5.01356C119.1 5.01356 149.328 19.8382 149.328 38.1254Z" fill="#FFFDFD"/>
<path d="M149.328 38.1254C149.328 56.4126 119.1 71.2373 81.8131 71.2373C44.5257 71.2373 14.2984 56.4126 14.2984 38.1254C14.2984 19.8382 44.5257 5.01356 81.8131 5.01356C119.1 5.01356 149.328 19.8382 149.328 38.1254Z" fill="#FFFDFD"/>
<path d="M1 26.0847H157V55.9356H1V26.0847Z" fill="#FFFDFD"/>
<path d="M19.6921 28.3196V51.6712H13.9264V28.3196H19.6921Z" fill="black"/>
<path d="M31.2526 51.6712V28.3196H47.8988C51.2156 28.3196 53.9513 28.6008 56.1057 29.1633C58.2601 29.7182 59.8642 30.467 60.9182 31.4096C61.9721 32.3445 62.4991 33.3821 62.4991 34.5223C62.4991 35.5257 62.1349 36.3543 61.4064 37.008C60.6934 37.6617 59.748 38.1786 58.57 38.5587C57.4076 38.9388 56.1444 39.22 54.7805 39.4025V39.6305C56.2374 39.6761 57.7021 39.927 59.1745 40.3831C60.6469 40.8391 61.8791 41.4929 62.8711 42.3442C63.863 43.1956 64.359 44.237 64.359 45.4684C64.359 46.639 63.8165 47.6918 62.7316 48.6268C61.6466 49.5618 59.934 50.3029 57.5936 50.8502C55.2532 51.3975 52.2076 51.6712 48.4568 51.6712H31.2526ZM37.0183 49.1627H48.4568C52.2231 49.1627 54.8967 48.8054 56.4776 48.0909C58.0741 47.3688 58.8723 46.4946 58.8723 45.4684C58.8723 44.6779 58.4615 43.9481 57.6401 43.2792C56.8186 42.6027 55.6484 42.063 54.1295 41.6601C52.6106 41.2496 50.8127 41.0444 48.7358 41.0444H37.0183V49.1627ZM37.0183 38.5815H47.7128C49.4487 38.5815 51.0142 38.4143 52.4091 38.0798C53.8195 37.7454 54.9355 37.2741 55.7569 36.6659C56.5939 36.0578 57.0124 35.3433 57.0124 34.5223C57.0124 33.4961 56.2839 32.6258 54.827 31.9112C53.37 31.1891 51.0607 30.828 47.8988 30.828H37.0183V38.5815Z" fill="black"/>
<path d="M73.8329 51.6712V28.3196H102.569V30.828H79.5987V38.7183H101.081V41.2268H79.5987V49.1627H102.941V51.6712H73.8329Z" fill="black"/>
<path d="M150.717 28.3196V51.6712H145.137L119.191 33.3365H118.727V51.6712H112.961V28.3196H118.541L144.579 46.6998H145.044V28.3196H150.717Z" fill="black"/>
<path d="M81.5576 0.5C102.45 0.500032 121.389 4.65188 135.123 11.3877C143.128 15.3137 149.417 20.148 153.263 25.585H157.5V56.4355H147.746C144.295 59.4553 140.032 62.2048 135.123 64.6123C121.389 71.3481 102.45 75.5 81.5576 75.5C60.6653 75.5 41.7258 71.3483 27.9912 64.6123C23.0823 62.2048 18.8188 59.4554 15.3682 56.4355H0.5V25.585H9.85254C13.6984 20.1481 19.9863 15.3136 27.9912 11.3877C41.7258 4.65174 60.6653 0.5 81.5576 0.5Z" stroke="#FFF8F8"/>
</svg>
