<svg width="156" height="74" viewBox="0 0 156 74" fill="none" xmlns="http://www.w3.org/2000/svg">
<path d="M156 37C156 57.4345 122.223 74 80.5574 74C38.8916 74 5.11475 57.4345 5.11475 37C5.11475 16.5655 38.8916 0 80.5574 0C122.223 0 156 16.5655 156 37Z" fill="#060606"/>
<path d="M156 37C156 57.4345 122.223 74 80.5574 74C38.8916 74 5.11475 57.4345 5.11475 37C5.11475 16.5655 38.8916 0 80.5574 0C122.223 0 156 16.5655 156 37Z" fill="black" fill-opacity="0.2"/>
<path d="M156 37C156 57.4345 122.223 74 80.5574 74C38.8916 74 5.11475 57.4345 5.11475 37C5.11475 16.5655 38.8916 0 80.5574 0C122.223 0 156 16.5655 156 37Z" fill="#060606"/>
<path d="M156 37C156 57.4345 122.223 74 80.5574 74C38.8916 74 5.11475 57.4345 5.11475 37C5.11475 16.5655 38.8916 0 80.5574 0C122.223 0 156 16.5655 156 37Z" fill="black" fill-opacity="0.2"/>
<path d="M156 37C156 57.4345 122.223 74 80.5574 74C38.8916 74 5.11475 57.4345 5.11475 37C5.11475 16.5655 38.8916 0 80.5574 0C122.223 0 156 16.5655 156 37Z" fill="#060606"/>
<path d="M156 37C156 57.4345 122.223 74 80.5574 74C38.8916 74 5.11475 57.4345 5.11475 37C5.11475 16.5655 38.8916 0 80.5574 0C122.223 0 156 16.5655 156 37Z" fill="black" fill-opacity="0.2"/>
<path d="M148.328 37.1254C148.328 55.4126 118.1 70.2373 80.8131 70.2373C43.5257 70.2373 13.2984 55.4126 13.2984 37.1254C13.2984 18.8382 43.5257 4.01356 80.8131 4.01356C118.1 4.01356 148.328 18.8382 148.328 37.1254Z" fill="#FFFDFD"/>
<path d="M148.328 37.1254C148.328 55.4126 118.1 70.2373 80.8131 70.2373C43.5257 70.2373 13.2984 55.4126 13.2984 37.1254C13.2984 18.8382 43.5257 4.01356 80.8131 4.01356C118.1 4.01356 148.328 18.8382 148.328 37.1254Z" fill="#FFFDFD"/>
<path d="M0 25.0847H156V54.9356H0V25.0847Z" fill="#FFFDFD"/>
<path d="M18.6921 27.3196V50.6712H12.9264V27.3196H18.6921Z" fill="black"/>
<path d="M30.2526 50.6712V27.3196H46.8988C50.2156 27.3196 52.9513 27.6008 55.1057 28.1633C57.2601 28.7182 58.8642 29.467 59.9182 30.4096C60.9721 31.3445 61.4991 32.3821 61.4991 33.5223C61.4991 34.5257 61.1349 35.3543 60.4064 36.008C59.6934 36.6617 58.748 37.1786 57.57 37.5587C56.4076 37.9388 55.1444 38.22 53.7805 38.4025V38.6305C55.2374 38.6761 56.7021 38.927 58.1745 39.3831C59.6469 39.8391 60.8791 40.4929 61.8711 41.3442C62.863 42.1956 63.359 43.237 63.359 44.4684C63.359 45.639 62.8165 46.6918 61.7316 47.6268C60.6466 48.5618 58.934 49.3029 56.5936 49.8502C54.2532 50.3975 51.2076 50.6712 47.4568 50.6712H30.2526ZM36.0183 48.1627H47.4568C51.2231 48.1627 53.8967 47.8054 55.4776 47.0909C57.0741 46.3688 57.8723 45.4946 57.8723 44.4684C57.8723 43.6779 57.4615 42.9481 56.6401 42.2792C55.8186 41.6027 54.6484 41.063 53.1295 40.6601C51.6106 40.2496 49.8127 40.0444 47.7358 40.0444H36.0183V48.1627ZM36.0183 37.5815H46.7128C48.4487 37.5815 50.0142 37.4143 51.4091 37.0798C52.8195 36.7454 53.9355 36.2741 54.7569 35.6659C55.5939 35.0578 56.0124 34.3433 56.0124 33.5223C56.0124 32.4961 55.2839 31.6258 53.827 30.9112C52.37 30.1891 50.0607 29.828 46.8988 29.828H36.0183V37.5815Z" fill="black"/>
<path d="M72.8329 50.6712V27.3196H101.569V29.828H78.5987V37.7183H100.081V40.2268H78.5987V48.1627H101.941V50.6712H72.8329Z" fill="black"/>
<path d="M149.717 27.3196V50.6712H144.137L118.191 32.3365H117.727V50.6712H111.961V27.3196H117.541L143.579 45.6998H144.044V27.3196H149.717Z" fill="black"/>
</svg>
